<svg viewBox="0 0 400 367.96" xmlns="http://www.w3.org/2000/svg">
<path d="m7.096 2.02 1.972 2.019-4.534 4.511c-5.863 5.833-5.863 5.906 6e-3 11.744l4.54 4.517-4.54 4.561c-5.851 5.878-5.851 5.93 0 11.75l4.54 4.517-4.54 4.561c-5.831 5.858-5.831 5.892 0 11.75l4.54 4.561-4.54 4.516c-5.851 5.821-5.851 5.873 0 11.751l4.54 4.561-4.54 4.516c-5.87 5.84-5.87 5.911 0 11.75l4.54 4.517-4.54 4.561c-5.851 5.878-5.851 5.93 0 11.75l4.54 4.517-4.54 4.561c-5.851 5.878-5.851 5.93 0 11.75l4.54 4.516-4.54 4.562c-5.851 5.877-5.851 5.93 0 11.75l4.54 4.516-4.54 4.561c-5.851 5.878-5.851 5.93 0 11.75l4.54 4.517-4.54 4.561c-5.851 5.878-5.851 5.93 0 11.75l4.54 4.517-4.54 4.561c-5.851 5.878-5.851 5.93 0 11.75l4.54 4.516-4.54 4.562c-5.851 5.877-5.851 5.93 0 11.75l4.54 4.516-4.54 4.561c-5.831 5.858-5.831 5.893 0 11.751l4.54 4.561-4.54 4.516c-5.87 5.84-5.87 5.911 0 11.75l4.54 4.517-4.54 4.561c-5.851 5.878-5.851 5.93 0 11.75l4.54 4.517-4.54 4.561c-5.851 5.877-5.851 5.93 0 11.75l4.54 4.516-4.54 4.561c-5.851 5.878-5.851 5.93 0 11.751l4.54 4.516-4.54 4.561c-4.9 4.923-5.162 5.341-3.341 5.341 0.861 0 6.117-4.917 18.691-17.486l17.492-17.487 4.402 4.403 4.403 4.402-13.076 13.084c-11.94 11.947-12.938 13.084-11.485 13.084 1.328 0 2.76-1.167 8.676-7.07l7.085-7.07 8.784 8.784-5.276 5.356h1.61c1.141 0 2.141-0.547 3.426-1.872l1.815-1.872 1.917 1.872c1.134 1.107 2.451 1.872 3.223 1.872 1.09 0 0.027-1.281-6.422-7.741l-7.727-7.741 4.522-4.546 4.522-4.545 12.295 12.286c11.334 11.327 12.441 12.287 14.157 12.287 1.733 0 3.078-1.215 19.351-17.482l17.489-17.483 4.547 4.524 4.548 4.524-12.95 12.959c-10.66 10.666-12.717 12.958-11.627 12.958 0.986 0 3.133-1.805 8.405-7.066l7.081-7.067 4.538 4.515 4.539 4.515-2.514 2.552c-2.38 2.416-2.442 2.551-1.169 2.551 0.835 0 2.03-0.709 3.158-1.872l1.815-1.872 1.917 1.872c1.314 1.283 2.413 1.872 3.491 1.872 1.456 0 0.991-0.582-6.301-7.886l-7.873-7.886 8.833-8.787 12.271 12.28c16.226 16.238 11.928 16.895 34.038-5.207l17.493-17.487 4.402 4.403 4.402 4.402-13.076 13.084c-11.939 11.947-12.937 13.084-11.485 13.084 1.329 0 2.761-1.167 8.676-7.07l7.085-7.07 8.784 8.784-5.276 5.356h1.611c1.14 0 2.141-0.547 3.426-1.872l1.814-1.872 1.918 1.872c1.313 1.283 2.412 1.872 3.49 1.872 1.457 0 0.992-0.582-6.3-7.886l-7.873-7.886 4.416-4.394 4.416-4.393 12.271 12.28c11.336 11.344 12.414 12.279 14.142 12.279 1.743 0 3.055-1.185 19.359-17.482l17.488-17.483 9.096 9.048-12.951 12.959c-10.659 10.666-12.716 12.958-11.626 12.958 0.985 0 3.132-1.805 8.405-7.066l7.081-7.067 9.076 9.03-2.513 2.552c-2.38 2.416-2.442 2.551-1.17 2.551 0.835 0 2.031-0.709 3.159-1.872l1.814-1.872 1.918 1.872c1.313 1.283 2.413 1.872 3.49 1.872 1.457 0 0.992-0.582-6.3-7.886l-7.873-7.886 4.416-4.394 4.416-4.393 12.271 12.28c16.227 16.238 11.929 16.895 34.039-5.207l17.492-17.487 8.805 8.805-13.076 13.084c-11.94 11.947-12.938 13.084-11.485 13.084 1.328 0 2.76-1.167 8.676-7.07l7.085-7.07 8.784 8.784-5.276 5.356h1.611c1.14 0 2.14-0.547 3.425-1.872l1.815-1.872 1.917 1.872c1.314 1.283 2.413 1.872 3.491 1.872 1.456 0 0.991-0.582-6.301-7.886l-7.873-7.886 4.416-4.394 4.417-4.393 12.271 12.28c16.094 16.106 12.563 16.278 30.307-1.476 11.827-11.833 13.748-13.978 13.748-15.348 0-1.471-0.735-0.859-9.614 8.009l-9.613 9.603-4.401-4.402-4.402-4.401 14.015-14.022c12.064-12.07 14.015-14.244 14.015-15.615 0-1.471-0.735-0.859-9.614 8.009l-9.613 9.603-4.401-4.401-4.402-4.401 14.015-14.023c12.064-12.07 14.015-14.244 14.015-15.615 0-1.471-0.735-0.859-9.614 8.01l-9.613 9.602-4.401-4.401-4.402-4.401 14.015-14.023c12.064-12.07 14.015-14.244 14.015-15.615 0-1.471-0.735-0.859-9.614 8.01l-9.613 9.602-4.401-4.401-4.402-4.401 14.015-14.022c12.064-12.07 14.015-14.244 14.015-15.615 0-1.472-0.735-0.86-9.614 8.009l-9.613 9.603-4.401-4.402-4.402-4.401 14.015-14.022c12.064-12.07 14.015-14.244 14.015-15.615 0-1.471-0.735-0.859-9.614 8.009l-9.613 9.603-8.803-8.803 14.015-14.022c12.064-12.07 14.015-14.244 14.015-15.615 0-1.471-0.735-0.859-9.614 8.01l-9.613 9.602-4.401-4.401-4.402-4.401 14.015-14.023c12.064-12.07 14.015-14.244 14.015-15.615 0-1.471-0.735-0.859-9.614 8.01l-9.613 9.602-4.401-4.401-4.402-4.401 14.015-14.022c12.064-12.07 14.015-14.244 14.015-15.616 0-1.471-0.735-0.859-9.614 8.01l-9.613 9.603-4.401-4.402-4.402-4.401 14.015-14.022c12.064-12.07 14.015-14.244 14.015-15.615 0-1.471-0.735-0.859-9.614 8.009l-9.613 9.603-8.803-8.803 14.015-14.022c12.064-12.07 14.015-14.244 14.015-15.615 0-1.471-0.735-0.859-9.614 8.01l-9.613 9.602-4.401-4.401-4.402-4.401 14.015-14.023c12.064-12.07 14.015-14.244 14.015-15.615 0-1.471-0.735-0.859-9.614 8.01l-9.613 9.602-4.401-4.401-4.402-4.401 14.015-14.022c12.064-12.071 14.015-14.244 14.015-15.616 0-1.471-0.735-0.859-9.614 8.01l-9.613 9.602-4.401-4.401-4.402-4.401 14.015-14.022c12.064-12.07 14.015-14.244 14.015-15.615 0-1.472-0.735-0.86-9.614 8.009l-9.613 9.603-4.401-4.402-4.402-4.401 14.015-14.022c12.064-12.07 14.015-14.244 14.015-15.615 0-1.471-0.735-0.859-9.614 8.009l-9.613 9.603-8.803-8.803 14.015-14.022c12.064-12.07 14.015-14.244 14.015-15.615 0-1.471-0.735-0.859-9.614 8.01l-9.613 9.602-4.401-4.401-4.402-4.401 14.015-14.023c12.064-12.07 14.015-14.244 14.015-15.615 0-1.471-0.735-0.859-9.614 8.01l-9.613 9.602-4.4-4.399-4.399-4.399 7.197-7.212c6.669-6.683 7.082-7.211 5.636-7.211-0.867 0-2.11 0.516-2.797 1.161l-1.236 1.161-1.236-1.161c-0.68-0.639-1.929-1.161-2.778-1.161h-1.543l1.972 2.02 1.973 2.019-8.821 8.775-6.39-6.407c-5.337-5.35-6.656-6.407-7.997-6.407-1.476 0-0.598 1.009 10.81 12.425l12.416 12.424-8.834 8.788-16.812-16.819c-14.549-14.554-17.027-16.818-18.406-16.818-1.543 0-1.454 0.14 2.797 4.413l4.39 4.413-35.521 35.509-4.524-4.549-4.525-4.548 17.613-17.619c14.396-14.401 17.371-17.619 16.286-17.619-1.018-0-4.074 2.744-13.09 11.753l-11.761 11.752-4.522-4.545-4.521-4.545 7.192-7.208c6.206-6.218 7.005-7.207 5.825-7.207-0.771 0-1.919 0.586-2.628 1.341l-1.26 1.341-1.399-1.341c-0.837-0.802-2.022-1.341-2.947-1.341h-1.548l2.096 2.147 2.097 2.147-4.39 4.389-4.389 4.389-6.552-6.536c-5.441-5.428-6.821-6.536-8.142-6.536-1.453 0-0.512 1.079 10.952 12.55l12.542 12.55-8.805 8.805-16.958-16.953c-14.646-14.64-17.175-16.952-18.546-16.952-1.534-0-1.441 0.148 2.803 4.413l4.39 4.413-17.757 17.75-17.756 17.751-8.806-8.806 17.754-17.76c16.147-16.153 17.61-17.761 16.151-17.761-1.378 0-3.256 1.654-13.34 11.746l-11.737 11.745-8.832-8.786 7.339-7.353c6.947-6.961 7.251-7.352 5.703-7.352-1.056 0-2.082 0.475-2.895 1.341l-1.26 1.341-1.399-1.341c-2.532-2.425-4.398-1.788-1.989 0.679l1.972 2.019-4.536 4.513-4.536 4.512-6.548-6.532c-4.845-4.834-6.892-6.532-7.871-6.532-1.09-0 0.862 2.187 11.093 12.425l12.416 12.424-4.547 4.524-4.548 4.524-16.954-16.949c-13.099-13.094-17.255-16.948-18.275-16.948-1.159 0-0.802 0.52 2.934 4.278l4.253 4.278-17.749 17.749-17.748 17.749-8.808-8.808 17.617-17.623c15.98-15.986 17.468-17.623 16.022-17.623-1.365 0-3.268 1.672-13.215 11.611l-11.62 11.611-4.4-4.4-4.4-4.399 7.197-7.212c6.669-6.683 7.082-7.211 5.636-7.211-0.867 0-2.11 0.516-2.796 1.161l-1.237 1.161-1.236-1.161c-0.68-0.639-1.929-1.161-2.778-1.161h-1.543l1.972 2.02 1.973 2.019-8.821 8.775-6.39-6.407c-5.337-5.35-6.656-6.407-7.997-6.407-1.476-0-0.598 1.009 10.81 12.425l12.416 12.424-8.834 8.788-16.812-16.819c-14.549-14.554-17.026-16.818-18.405-16.818-1.543-0-1.455 0.14 2.796 4.413l4.39 4.413-35.521 35.509-4.524-4.549-4.525-4.548 17.613-17.619c14.396-14.401 17.371-17.619 16.286-17.619-1.018 0-4.074 2.744-13.09 11.753l-11.761 11.752-4.522-4.545-4.521-4.545 7.192-7.208c6.206-6.218 7.005-7.207 5.825-7.207-0.771 0-1.919 0.586-2.628 1.341l-1.26 1.341-1.399-1.341c-0.836-0.802-2.022-1.341-2.947-1.341h-1.548l2.096 2.147 2.097 2.147-4.39 4.389-4.389 4.389-6.551-6.536c-5.442-5.428-6.822-6.536-8.142-6.536-1.454 0-0.513 1.079 10.951 12.55l12.542 12.55-4.402 4.403-4.403 4.402-16.958-16.953c-14.646-14.64-17.175-16.952-18.546-16.952-1.534-0-1.44 0.148 2.803 4.413l4.39 4.413-17.757 17.75-17.756 17.751-8.806-8.806 17.755-17.76c16.146-16.153 17.609-17.761 16.15-17.761-1.377 0-3.256 1.654-13.34 11.746l-11.736 11.745-4.417-4.393-4.416-4.393 7.339-7.353c6.947-6.961 7.251-7.352 5.703-7.352-1.056 0-2.082 0.475-2.895 1.341l-1.26 1.341-1.399-1.341c-2.532-2.425-4.398-1.788-1.989 0.679m145.51 48.044-4.395 4.417-35.52-35.508 4.394-4.418 4.395-4.417 17.76 17.754 17.76 17.755-4.394 4.417m74.093 0.13-4.54 4.541-17.749-17.749-17.749-17.75 4.525-4.549 4.526-4.549 35.528 35.516-4.541 4.54m148.07-0.13-4.395 4.417-35.52-35.508 4.394-4.418 4.394-4.417 17.761 17.754 17.76 17.755-4.394 4.417m-309.35-21.76 17.617 17.623-8.808 8.808-17.748-17.749-17.749-17.749 4.253-4.278c2.339-2.353 4.38-4.278 4.536-4.278 0.155 0 8.21 7.93 17.899 17.623m222.16 0 17.617 17.623-8.808 8.808-17.749-17.749-17.748-17.749 4.253-4.278c2.339-2.353 4.38-4.278 4.535-4.278 0.156 0 8.211 7.93 17.9 17.623m-259.4 19.081-17.754 17.76-4.417-4.394-4.418-4.394 35.509-35.521 8.835 8.789-17.755 17.76m87.58-22.144 4.39 4.413-17.76 17.754-17.761 17.754-4.524-4.548-4.525-4.548 17.613-17.619c9.687-9.691 17.74-17.619 17.895-17.619s2.258 1.986 4.672 4.413m74.097-0.135 4.253 4.278-35.497 35.497-4.404-4.403-4.404-4.404 17.617-17.623c9.689-9.693 17.744-17.623 17.899-17.623 0.156 0 2.197 1.925 4.536 4.278m60.486 22.279-17.754 17.76-4.417-4.394-4.418-4.394 35.509-35.521 8.835 8.789-17.755 17.76m87.58-22.144 4.39 4.413-17.76 17.754-17.761 17.754-4.524-4.548-4.525-4.548 17.613-17.619c9.687-9.691 17.74-17.619 17.895-17.619s2.257 1.986 4.672 4.413m-185.32 45.651-4.395 4.417-35.52-35.508 4.394-4.418 4.395-4.417 17.76 17.754 17.76 17.755-4.394 4.417m74.093 0.13-4.54 4.541-17.749-17.75-17.749-17.749 4.525-4.549 4.526-4.549 35.528 35.516-4.541 4.54m148.07-0.13-4.395 4.417-35.52-35.508 4.394-4.418 4.394-4.417 17.761 17.754 17.76 17.755-4.394 4.417m-309.35-21.76 17.617 17.623-4.404 4.404-4.404 4.403-35.497-35.497 4.253-4.278c2.339-2.353 4.38-4.278 4.536-4.278 0.155 0 8.21 7.93 17.899 17.623m222.16 0 17.617 17.623-4.404 4.404-4.404 4.403-17.749-17.748-17.748-17.749 4.253-4.278c2.339-2.353 4.38-4.278 4.535-4.278 0.156 0 8.211 7.93 17.9 17.623m-259.4 19.081-17.754 17.76-8.835-8.789 17.755-17.76 17.754-17.76 8.835 8.789-17.755 17.76m87.58-22.145 4.39 4.413-17.76 17.755-17.761 17.754-4.524-4.548-4.525-4.548 17.613-17.619c9.687-9.691 17.74-17.619 17.895-17.619s2.258 1.985 4.672 4.412m74.097-0.134 4.253 4.278-35.497 35.497-4.404-4.404-4.404-4.403 17.617-17.623c9.689-9.693 17.744-17.623 17.899-17.623 0.156 0 2.197 1.925 4.536 4.278m60.486 22.279-17.754 17.76-8.835-8.789 17.755-17.76 17.754-17.76 8.835 8.789-17.755 17.76m87.58-22.145 4.39 4.413-17.76 17.755-17.761 17.754-4.524-4.548-4.525-4.548 17.613-17.619c9.687-9.691 17.74-17.619 17.895-17.619s2.257 1.985 4.672 4.412m-185.32 45.652-4.395 4.417-17.76-17.754-17.76-17.755 4.394-4.417 4.395-4.417 35.52 35.508-4.394 4.418m74.093 0.13-4.54 4.54-35.498-35.498 4.525-4.549 4.526-4.549 35.528 35.516-4.541 4.54m148.07-0.13-4.395 4.417-17.76-17.754-17.76-17.755 8.788-8.834 17.761 17.754 17.76 17.754-4.394 4.418m-309.35-21.761 17.617 17.623-8.808 8.808-17.748-17.749-17.749-17.748 4.253-4.278c2.339-2.353 4.38-4.279 4.536-4.279 0.155 0 8.21 7.931 17.899 17.623m222.16 0 17.617 17.623-8.808 8.808-35.497-35.497 4.253-4.278c2.339-2.353 4.38-4.279 4.535-4.279 0.156 0 8.211 7.931 17.9 17.623m-259.4 19.082-17.754 17.76-8.835-8.789 17.755-17.76 17.754-17.761 4.417 4.395 4.418 4.394-17.755 17.761m87.58-22.145 4.39 4.413-17.76 17.755-17.761 17.754-4.524-4.548-4.525-4.548 17.613-17.62c9.687-9.69 17.74-17.619 17.895-17.619s2.258 1.986 4.672 4.413m74.097-0.135 4.253 4.279-17.749 17.748-17.748 17.749-8.808-8.808 17.617-17.623c9.689-9.692 17.744-17.623 17.899-17.623 0.156 0 2.197 1.925 4.536 4.278m60.486 22.28-17.754 17.76-8.835-8.789 17.755-17.76 17.754-17.761 4.417 4.395 4.418 4.394-17.755 17.761m87.58-22.145 4.39 4.413-17.76 17.755-17.761 17.754-4.524-4.548-4.525-4.548 17.613-17.62c9.687-9.69 17.74-17.619 17.895-17.619s2.257 1.986 4.672 4.413m-185.32 45.651-4.395 4.418-17.76-17.755-17.76-17.754 8.789-8.835 17.76 17.755 17.76 17.754-4.394 4.417m74.093 0.131-4.54 4.54-35.498-35.498 9.051-9.099 35.528 35.516-4.541 4.541m148.07-0.131-4.395 4.418-17.76-17.755-17.76-17.754 4.394-4.417 4.394-4.418 35.521 35.509-4.394 4.417m-309.35-21.76 17.617 17.623-8.808 8.808-17.748-17.749-17.749-17.748 4.253-4.279c2.339-2.353 4.38-4.278 4.536-4.278 0.155 0 8.21 7.931 17.899 17.623m222.16 0 17.617 17.623-8.808 8.808-35.497-35.497 4.253-4.279c2.339-2.353 4.38-4.278 4.535-4.278 0.156 0 8.211 7.931 17.9 17.623m-259.4 19.081-17.754 17.761-4.417-4.395-4.418-4.394 17.755-17.76 17.754-17.761 4.417 4.395 4.418 4.394-17.755 17.76m87.58-22.144 4.39 4.413-35.521 35.509-9.049-9.097 17.613-17.619c9.687-9.69 17.74-17.619 17.895-17.619s2.258 1.986 4.672 4.413m74.097-0.135 4.253 4.278-17.749 17.749-17.748 17.749-8.808-8.808 17.617-17.623c9.689-9.693 17.744-17.623 17.899-17.623 0.156 0 2.197 1.925 4.536 4.278m60.486 22.279-17.754 17.761-4.417-4.395-4.418-4.394 17.755-17.76 17.754-17.761 4.417 4.395 4.418 4.394-17.755 17.76m87.58-22.144 4.39 4.413-35.521 35.509-9.049-9.097 17.613-17.619c9.687-9.69 17.74-17.619 17.895-17.619s2.257 1.986 4.672 4.413m-185.32 45.651-4.395 4.418-17.76-17.755-17.76-17.754 4.394-4.418 4.395-4.417 17.76 17.754 17.76 17.755-4.394 4.417m74.093 0.131-4.54 4.54-35.498-35.498 4.525-4.55 4.526-4.549 35.528 35.516-4.541 4.541m148.07-0.131-4.395 4.418-17.76-17.755-17.76-17.754 4.394-4.418 4.394-4.417 17.761 17.754 17.76 17.755-4.394 4.417m-309.35-21.76 17.617 17.623-8.808 8.808-17.748-17.749-17.749-17.749 4.253-4.278c2.339-2.353 4.38-4.278 4.536-4.278 0.155 0 8.21 7.93 17.899 17.623m222.16 0 17.617 17.623-8.808 8.808-17.749-17.749-17.748-17.749 4.253-4.278c2.339-2.353 4.38-4.278 4.535-4.278 0.156 0 8.211 7.93 17.9 17.623m-259.27 18.95-17.627 17.628-8.808-8.808 35.226-35.238 8.837 8.791-17.628 17.627m87.451-22.013 4.39 4.413-17.76 17.754-17.761 17.754-4.524-4.548-4.525-4.548 17.613-17.619c9.687-9.691 17.74-17.619 17.895-17.619s2.258 1.986 4.672 4.413m74.097-0.135 4.253 4.278-17.749 17.749-17.748 17.749-8.808-8.808 17.617-17.623c9.689-9.693 17.744-17.623 17.899-17.623 0.156 0 2.197 1.925 4.536 4.278m60.486 22.279-17.754 17.76-4.417-4.394-4.418-4.394 35.509-35.521 8.835 8.789-17.755 17.76m87.58-22.144 4.39 4.413-17.76 17.754-17.761 17.754-4.524-4.548-4.525-4.548 17.613-17.619c9.687-9.691 17.74-17.619 17.895-17.619s2.257 1.986 4.672 4.413m-185.32 45.651-4.395 4.417-35.52-35.508 4.394-4.418 4.395-4.417 17.76 17.754 17.76 17.755-4.394 4.417m74.093 0.13-4.54 4.541-17.749-17.75-17.749-17.749 4.525-4.549 4.526-4.549 35.528 35.516-4.541 4.54m148.07-0.13-4.395 4.417-35.52-35.508 4.394-4.418 4.394-4.417 17.761 17.754 17.76 17.755-4.394 4.417m-309.35-21.76 17.617 17.623-4.404 4.404-4.404 4.403-35.497-35.497 4.253-4.278c2.339-2.353 4.38-4.278 4.536-4.278 0.155 0 8.21 7.93 17.899 17.623m222.16 0 17.617 17.623-4.404 4.404-4.404 4.403-17.749-17.748-17.748-17.749 4.253-4.278c2.339-2.353 4.38-4.278 4.535-4.278 0.156 0 8.211 7.93 17.9 17.623m-259.27 18.95-17.627 17.627-4.404-4.404-4.404-4.403 35.226-35.238 8.837 8.791-17.628 17.627m87.451-22.013 4.39 4.412-17.76 17.755-17.761 17.754-4.524-4.548-4.525-4.548 17.613-17.619c9.687-9.691 17.74-17.619 17.895-17.619s2.258 1.985 4.672 4.413m74.097-0.135 4.253 4.278-35.497 35.497-4.404-4.404-4.404-4.403 17.617-17.623c9.689-9.693 17.744-17.623 17.899-17.623 0.156 0 2.197 1.925 4.536 4.278m60.486 22.279-17.754 17.76-8.835-8.789 17.755-17.76 17.754-17.76 8.835 8.789-17.755 17.76m87.58-22.144 4.39 4.412-17.76 17.755-17.761 17.754-4.524-4.548-4.525-4.548 17.613-17.619c9.687-9.691 17.74-17.619 17.895-17.619s2.257 1.985 4.672 4.413m-185.32 45.651-4.395 4.417-17.76-17.754-17.76-17.755 4.394-4.417 4.395-4.417 35.52 35.508-4.394 4.418m74.093 0.13-4.54 4.54-35.498-35.498 4.525-4.549 4.526-4.549 35.528 35.516-4.541 4.54m148.07-0.13-4.395 4.417-17.76-17.754-17.76-17.755 8.788-8.834 17.761 17.754 17.76 17.754-4.394 4.418m-309.35-21.76 17.617 17.623-4.404 4.403-4.404 4.404-35.497-35.497 4.253-4.278c2.339-2.353 4.38-4.278 4.536-4.278 0.155 0 8.21 7.93 17.899 17.623m222.16 0 17.617 17.623-4.404 4.403-4.404 4.404-17.749-17.748-17.748-17.749 4.253-4.278c2.339-2.353 4.38-4.278 4.535-4.278 0.156 0 8.211 7.93 17.9 17.623m-259.27 18.95-17.627 17.627-8.808-8.808 35.226-35.238 4.418 4.396 4.419 4.395-17.628 17.628m87.451-22.014 4.39 4.413-17.76 17.755-17.761 17.754-4.524-4.548-4.525-4.548 17.613-17.619c9.687-9.691 17.74-17.62 17.895-17.62s2.258 1.986 4.672 4.413m74.097-0.134 4.253 4.278-17.749 17.748-17.748 17.749-8.808-8.808 17.617-17.623c9.689-9.692 17.744-17.623 17.899-17.623 0.156 0 2.197 1.926 4.536 4.279m60.486 22.279-17.754 17.76-8.835-8.789 17.755-17.76 17.754-17.76 4.417 4.394 4.418 4.394-17.755 17.761m87.58-22.145 4.39 4.413-17.76 17.755-17.761 17.754-4.524-4.548-4.525-4.548 17.613-17.619c9.687-9.691 17.74-17.62 17.895-17.62s2.257 1.986 4.672 4.413m-185.32 45.652-4.395 4.417-17.76-17.754-17.76-17.755 8.789-8.835 17.76 17.755 17.76 17.754-4.394 4.418m74.093 0.13-4.54 4.54-35.498-35.498 9.051-9.099 35.528 35.516-4.541 4.541m148.07-0.13-4.395 4.417-17.76-17.754-17.76-17.755 4.394-4.417 4.394-4.418 35.521 35.509-4.394 4.418m-309.35-21.761 17.617 17.623-8.808 8.808-17.748-17.749-17.749-17.748 4.253-4.279c2.339-2.353 4.38-4.278 4.536-4.278 0.155 0 8.21 7.931 17.899 17.623m222.16 0 17.617 17.623-8.808 8.808-35.497-35.497 4.253-4.279c2.339-2.353 4.38-4.278 4.535-4.278 0.156 0 8.211 7.931 17.9 17.623m-245.66-3.198 4.253 4.278-17.748 17.749-17.749 17.749-8.808-8.808 17.617-17.623c9.689-9.692 17.744-17.623 17.9-17.623 0.155 0 2.196 1.925 4.535 4.278m73.834 0.135 4.39 4.413-35.521 35.509-9.049-9.097 17.613-17.619c9.687-9.69 17.74-17.619 17.895-17.619s2.258 1.986 4.672 4.413m74.097-0.135 4.253 4.278-17.749 17.749-17.748 17.749-8.808-8.808 17.617-17.623c9.689-9.692 17.744-17.623 17.899-17.623 0.156 0 2.197 1.925 4.536 4.278m60.486 22.279-17.754 17.761-4.417-4.395-4.418-4.394 17.755-17.76 17.754-17.761 4.417 4.395 4.418 4.394-17.755 17.76m87.58-22.144 4.39 4.413-35.521 35.509-9.049-9.097 17.613-17.619c9.687-9.69 17.74-17.619 17.895-17.619s2.257 1.986 4.672 4.413m-259.16 45.782-4.541 4.54-35.498-35.498 9.051-9.099 35.528 35.516-4.54 4.541m73.837-0.131-4.395 4.418-17.76-17.755-17.76-17.754 8.789-8.835 17.76 17.755 17.76 17.754-4.394 4.417m74.093 0.131-4.54 4.54-35.498-35.498 4.525-4.55 4.526-4.549 35.528 35.516-4.541 4.541m148.07-0.131-4.395 4.418-17.76-17.755-17.76-17.754 4.394-4.417 4.394-4.418 35.521 35.509-4.394 4.417m-87.187-21.76 17.617 17.623-8.808 8.808-17.749-17.749-17.748-17.749 4.253-4.278c2.339-2.353 4.38-4.278 4.535-4.278 0.156 0 8.211 7.93 17.9 17.623m-245.66-3.198 4.253 4.278-17.748 17.749-17.749 17.749-8.808-8.808 17.617-17.623c9.689-9.693 17.744-17.623 17.9-17.623 0.155 0 2.196 1.925 4.535 4.278m73.834 0.135 4.39 4.413-35.521 35.509-4.524-4.549-4.525-4.548 17.613-17.619c9.687-9.69 17.74-17.619 17.895-17.619s2.258 1.986 4.672 4.413m74.097-0.135 4.253 4.278-17.749 17.749-17.748 17.749-8.808-8.808 17.617-17.623c9.689-9.693 17.744-17.623 17.899-17.623 0.156 0 2.197 1.925 4.536 4.278m60.486 22.279-17.754 17.761-4.417-4.395-4.418-4.394 35.509-35.521 4.417 4.395 4.418 4.394-17.755 17.76m87.58-22.144 4.39 4.413-35.521 35.509-4.524-4.549-4.525-4.548 17.613-17.619c9.687-9.69 17.74-17.619 17.895-17.619s2.257 1.986 4.672 4.413m-259.16 45.781-4.541 4.541-17.749-17.749-17.749-17.75 4.526-4.549 4.525-4.549 35.528 35.516-4.54 4.54m73.837-0.13-4.395 4.417-35.52-35.508 4.394-4.418 4.395-4.417 17.76 17.754 17.76 17.755-4.394 4.417m74.093 0.13-4.54 4.541-17.749-17.749-17.749-17.75 4.525-4.549 4.526-4.549 35.528 35.516-4.541 4.54m148.07-0.13-4.395 4.417-35.52-35.508 4.394-4.418 4.394-4.417 17.761 17.754 17.76 17.755-4.394 4.417m-87.187-21.76 17.617 17.623-8.808 8.808-17.749-17.749-17.748-17.749 4.253-4.278c2.339-2.353 4.38-4.278 4.535-4.278 0.156 0 8.211 7.93 17.9 17.623m-245.66-3.198 4.253 4.278-17.748 17.749-17.749 17.748-4.404-4.403-4.404-4.404 17.617-17.623c9.689-9.693 17.744-17.623 17.9-17.623 0.155 0 2.196 1.925 4.535 4.278m73.834 0.135 4.39 4.413-17.76 17.754-17.761 17.754-4.524-4.548-4.525-4.548 17.613-17.619c9.687-9.691 17.74-17.619 17.895-17.619s2.258 1.986 4.672 4.413m74.097-0.135 4.253 4.278-35.497 35.497-4.404-4.403-4.404-4.404 17.617-17.623c9.689-9.693 17.744-17.623 17.899-17.623 0.156 0 2.197 1.925 4.536 4.278m60.486 22.279-17.754 17.76-8.835-8.789 17.755-17.76 17.754-17.76 8.835 8.789-17.755 17.76m87.58-22.144 4.39 4.413-17.76 17.754-17.761 17.754-4.524-4.548-4.525-4.548 17.613-17.619c9.687-9.691 17.74-17.619 17.895-17.619s2.257 1.986 4.672 4.413m-259.16 45.781-4.541 4.541-17.749-17.75-17.749-17.749 4.526-4.549 4.525-4.549 35.528 35.516-4.54 4.54m73.837-0.13-4.395 4.417-17.76-17.754-17.76-17.755 4.394-4.417 4.395-4.417 35.52 35.508-4.394 4.418m74.093 0.13-4.54 4.541-17.749-17.75-17.749-17.749 4.525-4.549 4.526-4.549 35.528 35.516-4.541 4.54m148.07-0.13-4.395 4.417-17.76-17.754-17.76-17.755 8.788-8.834 17.761 17.754 17.76 17.754-4.394 4.418m-87.187-21.76 17.617 17.623-4.404 4.403-4.404 4.404-17.749-17.748-17.748-17.749 4.253-4.278c2.339-2.353 4.38-4.278 4.535-4.278 0.156 0 8.211 7.93 17.9 17.623m-245.66-3.198 4.253 4.278-35.497 35.497-8.808-8.808 17.617-17.623c9.689-9.692 17.744-17.623 17.9-17.623 0.155 0 2.196 1.926 4.535 4.279m73.834 0.134 4.39 4.413-17.76 17.755-17.761 17.754-4.524-4.548-4.525-4.548 17.613-17.619c9.687-9.691 17.74-17.62 17.895-17.62s2.258 1.986 4.672 4.413m74.097-0.134 4.253 4.278-17.749 17.748-17.748 17.749-8.808-8.808 17.617-17.623c9.689-9.692 17.744-17.623 17.899-17.623 0.156 0 2.197 1.926 4.536 4.279m60.486 22.279-17.754 17.76-8.835-8.789 17.755-17.76 17.754-17.76 4.417 4.394 4.418 4.394-17.755 17.761m87.58-22.145 4.39 4.413-17.76 17.755-17.761 17.754-4.524-4.548-4.525-4.548 17.613-17.619c9.687-9.691 17.74-17.62 17.895-17.62s2.257 1.986 4.672 4.413m-259.16 45.782-4.541 4.54-35.498-35.498 4.526-4.549 4.525-4.55 17.764 17.759 17.764 17.758-4.54 4.54m73.837-0.13-4.395 4.417-17.76-17.754-17.76-17.755 8.789-8.835 17.76 17.755 17.76 17.754-4.394 4.418m74.093 0.13-4.54 4.54-35.498-35.498 9.051-9.099 17.764 17.759 17.764 17.758-4.541 4.54m148.07-0.13-4.395 4.417-17.76-17.754-17.76-17.755 4.394-4.417 4.394-4.418 35.521 35.509-4.394 4.418m-87.187-21.761 17.617 17.623-8.808 8.808-35.497-35.497 4.253-4.278c2.339-2.353 4.38-4.279 4.535-4.279 0.156 0 8.211 7.931 17.9 17.623m-245.66-3.198 4.253 4.279-35.497 35.497-8.808-8.808 17.617-17.623c9.689-9.692 17.744-17.623 17.9-17.623 0.155 0 2.196 1.925 4.535 4.278m73.834 0.135 4.39 4.413-35.521 35.509-9.049-9.097 17.613-17.619c9.687-9.69 17.74-17.619 17.895-17.619s2.258 1.986 4.672 4.413m74.097-0.135 4.253 4.279-17.749 17.748-17.748 17.749-8.808-8.808 17.617-17.623c9.689-9.692 17.744-17.623 17.899-17.623 0.156 0 2.197 1.925 4.536 4.278m60.486 22.28-17.754 17.76-4.417-4.395-4.418-4.394 17.755-17.76 17.754-17.761 4.417 4.395 4.418 4.394-17.755 17.761m87.444-22.28 4.254 4.279-17.749 17.748-17.749 17.749-8.808-8.808 17.617-17.623c9.69-9.692 17.744-17.623 17.9-17.623 0.155 0 2.196 1.925 4.535 4.278m-259.02 45.917-4.541 4.54-35.498-35.498 9.051-9.099 35.528 35.516-4.54 4.541m73.837-0.131-4.395 4.418-17.76-17.755-17.76-17.754 8.789-8.835 17.76 17.755 17.76 17.754-4.394 4.417m74.093 0.131-4.54 4.54-35.498-35.498 4.525-4.55 4.526-4.549 35.528 35.516-4.541 4.541m148.07-0.131-4.395 4.418-17.76-17.755-17.76-17.754 4.394-4.417 4.394-4.418 35.521 35.509-4.394 4.417m-87.313-21.885 17.492 17.497-4.418 4.394-4.417 4.395-17.609-17.615-17.608-17.615 4.252-4.277c2.338-2.352 4.379-4.277 4.534-4.277 0.156 0 8.154 7.874 17.774 17.498m-245.53-3.073 4.253 4.278-17.748 17.749-17.749 17.749-8.808-8.808 17.617-17.623c9.689-9.693 17.744-17.623 17.9-17.623 0.155 0 2.196 1.925 4.535 4.278m73.834 0.135 4.39 4.413-35.521 35.509-4.524-4.549-4.525-4.548 17.613-17.619c9.687-9.69 17.74-17.619 17.895-17.619s2.258 1.986 4.672 4.413m74.097-0.135 4.253 4.278-17.749 17.749-17.748 17.749-8.808-8.808 17.617-17.623c9.689-9.693 17.744-17.623 17.899-17.623 0.156 0 2.197 1.925 4.536 4.278m60.486 22.279-17.754 17.761-4.417-4.395-4.418-4.394 35.509-35.521 4.417 4.395 4.418 4.394-17.755 17.76m87.444-22.279 4.254 4.278-35.498 35.498-8.808-8.808 17.617-17.623c9.69-9.693 17.744-17.623 17.9-17.623 0.155 0 2.196 1.925 4.535 4.278m-259.02 45.916-4.541 4.541-17.749-17.749-17.749-17.75 4.526-4.549 4.525-4.549 35.528 35.516-4.54 4.54m73.837-0.13-4.395 4.418-17.76-17.755-17.76-17.754 4.394-4.418 4.395-4.417 17.76 17.754 17.76 17.755-4.394 4.417m74.093 0.13-4.54 4.541-17.749-17.749-17.749-17.75 4.525-4.549 4.526-4.549 35.528 35.516-4.541 4.54m148.07-0.13-4.395 4.418-17.76-17.755-17.76-17.754 4.394-4.418 4.394-4.417 17.761 17.754 17.76 17.755-4.394 4.417m-87.313-21.886 17.492 17.498-4.418 4.394-4.417 4.395-17.609-17.615-17.608-17.615 4.252-4.277c2.338-2.352 4.379-4.277 4.534-4.277 0.156 0 8.154 7.874 17.774 17.497m-245.53-3.072 4.253 4.278-17.748 17.749-17.749 17.748-4.404-4.403-4.404-4.404 17.617-17.623c9.689-9.693 17.744-17.623 17.9-17.623 0.155 0 2.196 1.925 4.535 4.278m73.834 0.135 4.39 4.413-17.76 17.754-17.761 17.754-4.524-4.548-4.525-4.548 17.613-17.619c9.687-9.691 17.74-17.619 17.895-17.619s2.258 1.986 4.672 4.413m74.097-0.135 4.253 4.278-35.497 35.497-4.404-4.403-4.404-4.404 17.617-17.623c9.689-9.693 17.744-17.623 17.899-17.623 0.156 0 2.197 1.925 4.536 4.278m60.486 22.279-17.754 17.76-4.417-4.394-4.418-4.394 35.509-35.521 8.835 8.789-17.755 17.76m87.444-22.279 4.254 4.278-17.749 17.749-17.749 17.748-4.404-4.403-4.404-4.404 17.617-17.623c9.69-9.693 17.744-17.623 17.9-17.623 0.155 0 2.196 1.925 4.535 4.278m-259.02 45.916-4.541 4.541-17.749-17.75-17.749-17.749 4.526-4.549 4.525-4.549 35.528 35.516-4.54 4.54m73.837-0.13-4.395 4.417-35.52-35.508 4.394-4.418 4.395-4.417 17.76 17.754 17.76 17.755-4.394 4.417m74.093 0.13-4.54 4.541-17.749-17.75-17.749-17.749 4.525-4.549 4.526-4.549 35.528 35.516-4.541 4.54m148.07-0.13-4.395 4.417-35.52-35.508 4.394-4.418 4.394-4.417 17.761 17.754 17.76 17.755-4.394 4.417m-87.313-21.886 17.492 17.497-8.835 8.789-17.609-17.614-17.608-17.615 4.252-4.277c2.338-2.353 4.379-4.277 4.534-4.277 0.156 0 8.154 7.874 17.774 17.497m-245.53-3.072 4.253 4.278-17.748 17.749-17.749 17.748-4.404-4.404-4.404-4.403 17.617-17.623c9.689-9.693 17.744-17.623 17.9-17.623 0.155 0 2.196 1.925 4.535 4.278m73.834 0.134 4.39 4.413-17.76 17.755-17.761 17.754-4.524-4.548-4.525-4.548 17.613-17.619c9.687-9.691 17.74-17.619 17.895-17.619s2.258 1.985 4.672 4.412m74.097-0.134 4.253 4.278-35.497 35.497-4.404-4.404-4.404-4.403 17.617-17.623c9.689-9.693 17.744-17.623 17.899-17.623 0.156 0 2.197 1.925 4.536 4.278m60.486 22.279-17.754 17.76-8.835-8.789 17.755-17.76 17.754-17.76 8.835 8.789-17.755 17.76m87.444-22.279 4.254 4.278-17.749 17.749-17.749 17.748-4.404-4.404-4.404-4.403 17.617-17.623c9.69-9.693 17.744-17.623 17.9-17.623 0.155 0 2.196 1.925 4.535 4.278m-259.02 45.916-4.541 4.54-35.498-35.498 4.526-4.549 4.525-4.549 35.528 35.516-4.54 4.54m73.837-0.13-4.395 4.417-17.76-17.754-17.76-17.755 4.394-4.417 4.395-4.417 35.52 35.508-4.394 4.418m74.232 0-4.394 4.417-17.761-17.754-17.76-17.755 4.394-4.417 4.395-4.417 17.76 17.754 17.761 17.754-4.395 4.418m73.698 0-4.394 4.417-35.521-35.509 4.395-4.417 4.394-4.417 17.76 17.754 17.761 17.754-4.395 4.418m74.233 0-4.395 4.417-17.76-17.754-17.76-17.755 8.788-8.834 17.761 17.754 17.76 17.754-4.394 4.418m20.168 0.651c-4.629 4.658-4.74 4.825-3.189 4.825 2.324 0 8.417-6.137 8.16-8.22-0.167-1.354-0.431-1.173-4.971 3.395" fill-rule="evenodd"/>
</svg>