<svg width="360pt" height="360pt" version="1.0" viewBox="0 0 360 360" xmlns="http://www.w3.org/2000/svg">
<g transform="translate(0 360) scale(.1 -.1)" fill="rgba(255, 255, 255, 0.55)">
<path d="m1717 2943c-36-93-114-292-173-443s-144-369-190-485l-82-210-376-3-376-2v-155-155l314-2 314-3-82-210c-251-639-296-757-291-766 4-5 88-9 190-9 165 0 185 2 194 18 5 9 27 69 49 132 113 323 243 691 322 915 154 435 211 597 242 690 44 127 47 130 74 48 154-467 598-1781 606-1790 12-15 373-19 382-4 3 4-31 107-75 227-45 120-96 260-115 309-18 50-62 169-97 265l-65 175 314 3 314 2v155 155h-373-372l-124 333c-68 182-178 477-244 655l-120 322h-47-47l-66-167z"/>
</g>
</svg>
