<svg width="360pt" height="360pt" version="1.0" viewBox="0 0 360 360" xmlns="http://www.w3.org/2000/svg">
<g transform="translate(0 360) scale(.1 -.1)">
<path d="m0 1800v-1800h1800 1800v1800 1800h-1800-1800v-1800zm1997 988c66-178 176-473 244-655l124-333h372 373v-155-155h-314-315l18-52c11-29 49-134 86-233 36-99 96-259 131-355 36-96 78-210 95-253 16-44 27-83 23-88-9-15-370-11-382 4-8 9-452 1323-606 1790-27 82-30 79-74-48-31-93-88-255-242-690-79-224-209-592-322-915-22-63-44-123-49-132-9-16-29-18-194-18-102 0-186 4-190 9-5 9 40 127 291 766l82 210-314 3-314 2v155 155l376 2 376 3 82 210c46 116 131 334 190 485s137 350 173 443l66 167h47 47l120-322z"/>
</g>
</svg>
