<svg version="1.0" xmlns="http://www.w3.org/2000/svg"
 width="300.000000pt" height="276.000000pt" viewBox="0 0 300.000000 276.000000"
 preserveAspectRatio="xMidYMid meet" style="background-color: #000;">
<g transform="translate(0.000000,276.000000) scale(0.050000,-0.050000)"
fill="rgba(255, 82, 0, 0.5)" stroke="none">
<path d="M101 5489 c21 -26 15 -41 -38 -96 -79 -81 -79 -105 1 -187 l64 -66
-64 -66 c-79 -81 -79 -87 0 -168 l64 -66 -64 -66 c-80 -82 -80 -106 0 -188
l64 -66 -64 -66 c-79 -81 -79 -92 -4 -164 33 -32 60 -68 60 -80 0 -12 -27 -48
-60 -80 -75 -72 -75 -83 4 -164 l64 -66 -64 -66 c-80 -82 -80 -106 0 -188 l64
-66 -64 -66 c-79 -81 -79 -87 0 -168 l64 -66 -64 -66 c-80 -82 -80 -106 0
-188 l64 -66 -64 -66 c-79 -81 -79 -87 -1 -181 l62 -76 -62 -64 c-78 -80 -78
-86 1 -167 l64 -66 -64 -66 c-80 -82 -80 -106 0 -188 l64 -66 -64 -66 c-79
-81 -79 -92 -4 -164 75 -72 75 -88 0 -160 -75 -72 -75 -83 4 -164 l64 -66 -64
-66 c-80 -82 -80 -106 0 -188 l64 -66 -64 -66 c-79 -81 -79 -87 0 -168 l64
-66 -64 -66 c-80 -82 -80 -106 0 -188 l64 -66 -64 -66 c-79 -81 -79 -87 -1
-181 l62 -76 -66 -68 c-38 -39 -55 -69 -40 -69 15 0 145 116 289 257 l262 258
54 -64 54 -64 -189 -188 c-104 -104 -180 -192 -167 -196 12 -4 71 40 130 99
l108 107 64 -64 c62 -62 63 -64 27 -104 -42 -46 0 -62 45 -17 19 19 29 19 48
0 13 -13 36 -24 52 -24 15 0 -23 46 -84 102 -128 117 -132 131 -56 204 l55 53
179 -179 c229 -230 207 -233 520 80 l259 259 66 -64 66 -64 -195 -195 c-111
-111 -181 -196 -163 -196 17 0 74 46 127 102 l95 101 68 -66 69 -67 -43 -35
c-29 -23 -34 -35 -15 -35 15 0 39 11 52 24 19 19 29 19 48 0 13 -13 38 -24 54
-24 18 0 -20 51 -87 119 l-118 119 64 65 64 65 185 -184 c102 -101 201 -184
221 -184 20 0 153 114 295 254 l258 253 61 -58 60 -57 -195 -196 c-107 -108
-182 -196 -166 -196 16 0 76 47 135 104 l105 105 64 -64 c62 -62 63 -64 27
-104 -42 -46 0 -62 45 -17 19 19 29 19 48 0 13 -13 38 -24 54 -24 18 0 -20 51
-88 120 l-118 119 58 61 57 60 184 -180 c231 -227 209 -230 519 80 l259 259
66 -64 66 -64 -195 -195 c-108 -108 -183 -196 -167 -196 16 0 73 46 127 102
l98 102 69 -66 68 -67 -45 -35 c-34 -26 -38 -35 -15 -36 17 0 42 11 55 24 19
19 29 19 48 0 13 -13 38 -24 54 -24 18 0 -20 52 -88 120 l-119 120 65 65 64
64 185 -184 c102 -102 201 -185 219 -185 19 0 152 115 295 255 l261 256 60
-60 60 -60 -195 -196 c-107 -107 -181 -195 -165 -195 16 0 76 47 135 104 l105
105 64 -64 c62 -62 63 -64 27 -104 -42 -46 0 -62 45 -17 19 19 29 19 48 0 13
-13 38 -24 54 -24 18 0 -20 51 -88 120 l-118 119 58 61 58 61 182 -181 c107
-106 197 -180 221 -180 46 0 449 395 449 440 0 16 -66 -36 -146 -116 l-146
-145 -54 57 c-70 73 -82 51 146 275 118 116 200 213 200 235 0 29 -38 0 -141
-107 l-141 -146 -64 63 -63 64 204 205 c113 113 205 219 205 235 0 16 -66 -36
-146 -116 l-146 -145 -63 66 -64 66 209 209 c116 115 210 223 210 239 0 17
-66 -35 -146 -115 l-146 -145 -58 61 -58 61 204 205 c112 112 204 218 204 234
0 16 -61 -32 -136 -106 -154 -153 -157 -154 -230 -78 l-53 55 209 209 c116
115 210 223 210 239 0 17 -66 -35 -146 -115 l-146 -145 -64 66 -64 66 210 206
c116 114 210 221 210 239 0 20 -56 -23 -146 -112 l-146 -145 -58 61 -58 61
204 205 c112 112 204 218 204 234 0 16 -66 -36 -146 -116 l-146 -145 -63 66
-64 66 209 209 c116 115 210 223 210 239 0 17 -66 -35 -146 -115 l-146 -145
-58 61 -58 61 204 205 c115 115 204 221 204 243 0 26 -41 -6 -140 -110 l-140
-148 -65 64 -64 65 204 205 c113 113 205 219 205 235 0 16 -66 -36 -146 -116
l-146 -145 -63 66 -64 66 209 209 c116 115 210 223 210 239 0 17 -66 -35 -146
-115 l-146 -145 -58 61 -58 61 204 205 c112 112 204 218 204 234 0 16 -61 -32
-136 -106 -154 -153 -157 -154 -230 -78 l-53 55 209 209 c116 115 210 223 210
239 0 17 -66 -35 -146 -115 l-146 -145 -64 66 -64 67 210 202 c117 112 210
218 210 238 0 26 -44 -7 -146 -108 l-146 -145 -58 61 -58 61 204 205 c112 112
204 218 204 234 0 16 -66 -36 -146 -116 l-146 -145 -63 66 -64 66 209 209
c116 115 210 223 210 239 0 17 -66 -35 -146 -115 l-146 -145 -58 61 -58 61
106 107 106 107 -81 -2 c-64 -2 -76 -8 -58 -29 17 -20 7 -41 -41 -90 l-64 -63
-96 95 c-52 52 -108 94 -124 94 -16 0 54 -84 156 -186 l185 -185 -66 -64 -66
-64 -249 249 c-309 310 -292 307 -525 75 l-175 -174 -64 64 -65 65 106 107
106 108 -82 0 c-68 0 -78 -5 -58 -29 19 -23 11 -41 -39 -92 l-64 -63 -96 95
c-52 52 -108 94 -124 94 -16 0 56 -85 160 -190 l188 -189 -58 -61 -58 -61
-251 251 c-139 137 -265 250 -281 250 -18 0 -5 -24 35 -65 l65 -64 -264 -265
-265 -265 -66 64 -66 64 265 265 c146 146 252 266 236 266 -16 0 -106 -77
-200 -170 l-172 -171 -58 61 -58 61 108 109 c63 64 96 110 78 110 -16 0 -40
-10 -52 -22 -15 -15 -25 -15 -35 0 -7 12 -23 22 -35 22 -13 0 -11 -12 5 -31
22 -27 16 -41 -37 -95 l-64 -63 -96 95 c-52 52 -108 94 -124 94 -16 0 54 -84
156 -186 l185 -185 -66 -64 -66 -64 -249 249 c-311 312 -296 310 -529 77
l-174 -174 -63 64 -63 63 106 107 106 108 -82 0 c-68 0 -78 -5 -58 -29 19 -23
11 -41 -39 -92 l-64 -63 -96 95 c-52 52 -108 94 -124 94 -16 0 56 -85 160
-190 l188 -189 -58 -61 -58 -61 -251 251 c-139 137 -264 250 -280 250 -18 0
-5 -25 35 -66 l63 -65 -265 -265 -265 -264 -64 65 -65 64 265 266 c145 146
251 265 234 265 -16 0 -106 -76 -199 -170 l-169 -169 -66 63 -65 64 104 106
c58 58 95 106 84 106 -11 0 -30 -10 -42 -22 -15 -15 -25 -15 -35 0 -7 12 -28
22 -45 22 -29 0 -29 -4 1 -36 31 -35 29 -40 -27 -94 l-61 -58 -95 94 c-52 52
-108 94 -124 94 -16 0 54 -84 156 -186 l185 -185 -66 -64 -66 -64 -249 249
c-309 310 -292 307 -525 75 l-175 -174 -64 64 -65 65 109 110 c63 64 96 110
78 110 -16 0 -40 -10 -52 -22 -15 -15 -25 -15 -35 0 -7 12 -23 22 -35 22 -13
0 -11 -12 5 -31z m525 -45 l53 -55 -265 -265 -266 -265 -58 61 -58 61 258 259
c294 295 266 278 336 204z m2220 0 l53 -55 -259 -259 -259 -258 -61 58 -61 58
255 256 c290 290 262 273 332 200z m2222 -2 l56 -59 -262 -257 -262 -257 -60
60 -60 60 255 256 c289 290 260 273 333 197z m-3891 -675 l-63 -65 -257 254
c-285 282 -278 270 -203 348 l54 57 266 -265 265 -265 -62 -64z m913 333 l259
-260 -64 -65 -65 -64 -259 258 -259 258 54 65 c30 36 59 66 64 67 6 0 127
-116 270 -259z m1306 -334 l-63 -65 -266 264 -266 264 64 66 64 66 265 -265
265 -265 -63 -65z m1164 65 c0 -10 -24 -44 -54 -75 l-54 -57 -266 265 -265
265 64 66 64 66 255 -255 c141 -141 256 -264 256 -275z m1060 -60 l-60 -61
-264 265 -265 264 59 61 58 61 266 -265 266 -265 -60 -60z m-5199 40 l-261
-261 -65 65 -64 65 259 260 259 259 66 -64 66 -64 -260 -260z m1113 6 c-302
-294 -266 -272 -338 -203 l-57 54 265 266 265 265 65 -63 65 -63 -265 -256z
m1317 322 l58 -60 -265 -264 -264 -265 -65 65 -64 65 259 260 c296 296 265
278 341 199z m903 -321 c-303 -295 -266 -273 -338 -204 l-57 54 265 266 265
265 64 -62 64 -62 -263 -257z m1317 321 l58 -60 -265 -264 -264 -265 -65 65
-64 65 259 260 c296 296 265 278 341 199z m-3891 -688 l-60 -61 -264 265 -265
264 59 61 58 61 266 -265 266 -265 -60 -60z m910 329 l259 -260 -60 -60 -60
-61 -268 261 -267 261 57 60 c74 77 44 95 339 -201z m1120 0 l259 -259 -66
-64 -66 -64 -263 263 -263 263 58 60 c76 79 45 97 341 -199z m1100 0 l259
-260 -63 -64 -64 -63 -264 262 -264 262 58 62 c75 79 41 98 338 -199z m1118 2
l257 -258 -67 -61 -68 -61 -259 258 -260 259 58 60 c76 79 46 97 339 -197z
m-4800 41 l55 -58 -266 -263 -266 -263 -60 61 -60 60 259 260 c295 295 265
278 338 203z m1102 -3 l58 -61 -258 -259 -259 -259 -66 64 -66 64 255 255
c291 292 261 274 336 196z m1116 4 l53 -55 -265 -265 -266 -265 -58 61 -58 61
258 259 c294 295 266 278 336 204z m1104 -4 l58 -61 -258 -259 -259 -259 -55
53 c-74 71 -89 45 189 329 286 292 253 272 325 197z m1121 -1 l58 -60 -265
-264 -264 -265 -65 65 -64 65 259 260 c296 296 265 278 341 199z m-1676 -674
l-64 -66 -255 255 c-284 283 -277 272 -202 350 l54 57 266 -265 265 -265 -64
-66z m2224 4 l-60 -62 -260 254 c-289 283 -279 266 -205 343 l54 57 266 -265
265 -265 -60 -62z m-4635 317 l255 -255 -64 -66 -64 -66 -255 255 c-279 278
-275 273 -213 340 64 68 65 68 341 -208z m1105 -4 l250 -247 -45 -56 c-63 -81
-59 -84 -338 195 l-255 255 53 56 c68 71 43 86 335 -203z m2221 -2 l258 -259
-58 -61 -58 -61 -266 265 -265 265 53 55 c70 74 42 91 336 -204z m-3894 -274
l-265 -265 -55 53 c-75 72 -88 50 199 339 l255 257 65 -59 66 -60 -265 -265z
m1120 0 l-265 -265 -66 64 -66 64 265 265 265 265 66 -64 66 -64 -265 -265z
m1309 332 l60 -63 -262 -262 -263 -263 -64 65 -64 64 259 258 c305 303 261
277 334 201z m911 -332 l-265 -265 -66 64 -66 64 265 265 265 265 66 -64 66
-64 -265 -265z m1105 5 l-261 -261 -64 65 -65 65 260 256 259 256 65 -61 66
-60 -260 -260z m-3681 -360 l-60 -60 -257 250 c-290 281 -282 267 -209 343
l54 57 266 -265 266 -265 -60 -60z m910 329 l259 -260 -64 -65 -65 -65 -264
265 -265 264 58 60 c76 79 45 97 341 -199z m1365 -261 c3 -6 -22 -37 -55 -69
l-60 -58 -257 249 c-290 281 -282 267 -209 343 l53 56 262 -255 c143 -140 263
-260 266 -266z m1050 -64 l-65 -64 -260 259 -259 259 64 66 64 66 260 -260
261 -261 -65 -65z m1173 69 c6 -3 -19 -34 -54 -69 l-64 -65 -264 265 -265 264
59 61 58 61 261 -256 c143 -140 264 -258 269 -261z m-5047 295 l58 -60 -265
-264 -264 -265 -65 65 -64 65 259 260 c296 296 265 278 341 199z m1099 1 l58
-61 -258 -259 -259 -259 -65 63 -66 64 255 253 c296 295 262 275 335 199z
m1121 -1 l58 -60 -265 -264 -264 -265 -65 65 -64 65 259 260 c296 296 265 278
341 199z m896 -321 l-262 -262 -62 57 -62 57 264 265 264 265 60 -60 61 -60
-263 -262z m1324 321 l58 -60 -265 -264 -264 -265 -65 65 -64 65 259 260 c296
296 265 278 341 199z m-4095 -355 l264 -256 -66 -64 -65 -63 -259 259 -258
259 58 61 c31 33 59 60 60 60 1 0 121 -115 266 -256z m1114 -4 l258 -259 -58
-61 -58 -61 -266 265 -265 265 53 55 c70 74 42 91 336 -204z m1116 4 l255
-255 -66 -64 -66 -64 -259 259 -258 259 58 61 c75 78 45 96 336 -196z m1104
-4 l259 -260 -59 -59 -60 -60 -265 263 -265 263 54 57 c70 74 42 91 336 -204z
m1116 4 l255 -255 -66 -64 -66 -64 -259 259 -258 259 58 61 c75 78 45 96 336
-196z m-3890 -278 l-265 -265 -66 64 -66 64 265 265 265 265 66 -64 66 -64
-265 -265z m-910 318 l53 -55 -259 -259 -259 -258 -61 58 -61 58 255 256 c290
290 262 273 332 200z m2220 0 l53 -55 -259 -259 -259 -258 -61 58 -61 58 255
256 c290 290 262 273 332 200z m1118 2 l57 -54 -265 -266 -265 -265 -66 64
-66 64 255 255 c283 284 272 277 350 202z m1106 -6 l58 -61 -258 -259 -259
-259 -66 64 -66 64 255 255 c291 292 261 274 336 196z m-3895 -675 l-64 -66
-255 255 c-284 283 -277 272 -202 350 l54 57 266 -265 265 -265 -64 -66z
m1110 10 l-65 -64 -260 259 -259 259 64 66 64 66 260 -260 261 -261 -65 -65z
m1110 -10 l-64 -66 -265 265 -265 265 64 66 64 66 265 -265 265 -265 -64 -66z
m1165 64 c0 -9 -24 -42 -54 -73 l-54 -57 -266 265 -265 265 59 61 60 62 260
-253 c143 -139 260 -260 260 -270z m1060 -58 l-60 -61 -264 265 -265 264 59
61 58 61 266 -265 266 -265 -60 -60z m-5199 40 l-261 -261 -65 65 -64 65 259
260 259 259 66 -64 66 -64 -260 -260z m1115 -5 l-265 -265 -66 64 -66 64 265
265 265 265 66 -64 66 -64 -265 -265z m1315 333 l58 -60 -265 -264 -264 -265
-65 65 -64 65 259 260 c296 296 265 278 341 199z m905 -333 l-265 -265 -66 64
-66 64 265 265 265 265 66 -64 66 -64 -265 -265z m1315 333 l58 -60 -265 -264
-264 -265 -65 65 -64 65 259 260 c296 296 265 278 341 199z m-3891 -688 l-60
-61 -264 265 -265 264 59 61 58 61 266 -265 266 -265 -60 -60z m910 329 l259
-260 -64 -65 -65 -65 -264 265 -265 264 58 60 c76 79 45 97 341 -199z m1120 0
l259 -260 -65 -65 -64 -65 -264 265 -265 264 58 60 c76 79 44 97 341 -199z
m1295 -325 l-65 -64 -260 259 -259 259 64 66 64 66 260 -260 261 -261 -65 -65z
m925 325 l259 -260 -65 -65 -64 -65 -264 265 -265 264 58 60 c76 79 44 97 341
-199z m-4799 39 l58 -60 -265 -264 -264 -265 -65 65 -64 65 259 260 c296 296
265 278 341 199z m1099 1 l58 -61 -258 -259 -259 -259 -66 64 -66 64 255 255
c291 292 261 274 336 196z m1120 0 l58 -61 -266 -262 -266 -262 -63 62 -62 63
259 260 c296 296 265 278 340 200z m900 -320 l-259 -260 -60 60 -60 60 259
260 259 260 60 -60 60 -60 -259 -260z m1321 319 l58 -60 -265 -264 -264 -265
-65 65 -64 65 259 260 c296 296 265 278 341 199z m-4085 -355 l255 -255 -66
-64 -66 -64 -259 259 -258 259 58 61 c75 78 45 96 336 -196z m1104 -4 l258
-259 -58 -61 -58 -61 -266 265 -265 265 53 55 c70 74 42 91 336 -204z m1116 4
l255 -255 -66 -64 -66 -64 -259 259 -258 259 58 61 c75 78 45 96 336 -196z
m1104 -4 l258 -259 -58 -61 -58 -61 -266 265 -265 265 53 55 c70 74 42 91 336
-204z m1116 4 l255 -255 -66 -64 -66 -64 -258 258 -257 258 48 60 c68 86 62
89 344 -193z m-3890 -278 l-265 -265 -66 64 -66 64 265 265 265 265 66 -64 66
-64 -265 -265z m2220 0 l-265 -265 -66 64 -66 64 265 265 265 265 66 -64 66
-64 -265 -265z m-3130 318 l53 -55 -259 -259 -259 -258 -61 58 -61 58 255 256
c290 290 262 273 332 200z m2220 0 l53 -55 -259 -259 -259 -258 -61 58 -61 58
255 256 c290 290 262 273 332 200z m2222 -2 l56 -58 -262 -258 -262 -257 -60
60 -60 60 255 256 c289 290 260 273 333 197z m-3882 -666 c-69 -73 -40 -90
-331 190 -283 273 -276 260 -201 338 l54 57 266 -265 265 -265 -53 -55z m904
324 l259 -260 -64 -65 -65 -64 -259 258 -259 258 54 65 c30 36 59 66 64 67 6
0 127 -116 270 -259z m1307 -333 l-62 -64 -267 263 -267 263 64 66 64 66 265
-265 265 -265 -62 -64z m1163 65 c0 -27 -82 -112 -108 -112 -12 0 -136 114
-276 254 l-255 255 64 66 64 66 255 -255 c141 -141 256 -264 256 -274z m1060
-61 l-60 -61 -264 265 -265 264 59 61 58 61 266 -265 266 -265 -60 -60z
m-4989 368 l58 -60 -265 -264 -264 -265 -65 65 -64 65 259 260 c296 296 265
278 341 199z m903 -321 c-303 -295 -266 -273 -338 -204 l-57 54 265 266 265
265 64 -62 64 -62 -263 -257z m1317 321 l58 -60 -265 -264 -264 -265 -65 65
-64 65 259 260 c296 296 265 278 341 199z m1164 -68 c-3 -2 -124 -119 -270
-260 l-265 -258 -61 58 -60 57 265 266 265 265 65 -63 c36 -35 63 -64 61 -65z
m1056 68 l58 -60 -265 -264 -264 -265 -65 65 -64 65 259 260 c296 296 265 278
341 199z m-4083 -357 l258 -259 -65 -65 -64 -64 -263 262 -263 263 58 60 c76
79 46 97 339 -197z m1102 -2 l259 -260 -60 -60 -60 -60 -267 261 -267 262 56
58 c74 77 44 95 339 -201z m1117 3 l256 -256 -63 -67 -63 -67 -263 263 -263
263 58 60 c76 79 46 97 338 -196z m1103 -3 l259 -260 -61 -61 -61 -62 -268
261 -268 261 58 60 c76 79 45 97 341 -199z m1116 4 l255 -255 -66 -64 -66 -64
-259 259 -258 259 58 61 c75 78 45 96 336 -196z m-4800 40 l53 -55 -263 -266
-263 -265 -61 61 -61 61 259 260 c294 295 266 278 336 204z m1110 -1 l61 -56
-264 -264 -264 -263 -64 65 -65 64 255 256 c288 289 261 273 341 198z m1110 1
l53 -55 -265 -265 -266 -265 -58 61 -58 61 258 259 c294 295 266 278 336 204z
m1104 -4 l58 -61 -258 -259 -259 -259 -64 62 -64 62 253 254 c297 297 262 276
334 201z m1121 -1 l58 -60 -265 -264 -264 -265 -65 65 -64 65 259 260 c296
296 265 278 341 199z m-3896 -674 l-64 -66 -255 255 c-287 287 -275 265 -202
347 l54 61 266 -266 265 -265 -64 -66z m2220 0 l-64 -66 -255 255 c-284 283
-277 272 -202 350 l54 57 266 -265 265 -265 -64 -66z m2225 5 l-60 -62 -260
258 c-295 293 -277 264 -206 338 l54 57 266 -265 265 -265 -59 -61z m-3530
312 l254 -247 -62 -62 -62 -62 -260 259 -259 259 53 56 c68 70 39 88 336 -203z
m2220 -2 l258 -259 -58 -61 -58 -61 -266 265 -265 265 53 55 c70 74 42 91 336
-204z m-3679 59 l58 -60 -265 -264 -264 -265 -63 64 -64 63 259 258 c301 302
266 280 339 204z m905 -333 l-265 -265 -66 64 -66 64 265 265 265 265 66 -64
66 -64 -265 -265z m1315 333 l58 -60 -265 -264 -264 -265 -64 65 -65 65 259
259 c299 297 266 278 341 200z m905 -333 l-265 -265 -66 64 -66 64 265 265
265 265 66 -64 66 -64 -265 -265z m1303 332 l66 -63 -262 -262 -263 -263 -64
65 -65 65 260 258 c142 142 260 259 261 260 1 1 31 -26 67 -60z m-4078 -359
l266 -261 -63 -64 -64 -64 -264 265 -265 264 58 60 c32 34 60 61 62 61 2 0
123 -117 270 -261z m1109 1 l259 -260 -64 -65 -65 -65 -264 265 -265 264 58
60 c76 79 45 97 341 -199z m1108 -2 l267 -263 -62 -62 -63 -62 -257 250 c-141
137 -259 258 -260 268 -2 14 93 131 106 131 1 0 122 -118 269 -262z m1307
-323 l-65 -64 -260 259 -259 259 64 66 64 66 260 -260 261 -261 -65 -65z
m1170 64 c3 -6 -22 -37 -55 -69 l-61 -59 -264 264 -264 264 58 60 58 61 262
-255 c143 -140 263 -260 266 -266z m-5044 300 l58 -60 -265 -264 -264 -265
-65 65 -64 65 259 260 c296 296 265 278 341 199z m1099 1 l58 -61 -258 -259
-259 -259 -66 64 -66 63 256 254 c296 294 262 274 335 198z m1121 -1 l58 -60
-265 -264 -264 -265 -65 65 -64 65 259 260 c296 296 265 278 341 199z m899
-319 c-294 -294 -265 -277 -328 -197 l-48 60 258 259 257 258 60 -60 60 -60
-259 -260z m1321 319 l58 -60 -265 -264 -264 -265 -65 65 -64 65 259 260 c296
296 265 278 341 199z m-4085 -355 l255 -255 -66 -64 -66 -64 -259 259 -258
259 58 61 c75 78 45 96 336 -196z m1104 -4 l258 -259 -58 -61 -58 -61 -266
265 -265 265 53 55 c70 74 42 91 336 -204z m1116 4 l255 -255 -66 -64 -66 -64
-259 259 -258 259 58 61 c75 78 45 96 336 -196z m1104 -4 l258 -259 -58 -61
-58 -61 -266 265 -265 265 53 55 c70 74 42 91 336 -204z m1116 4 l255 -255
-66 -64 -66 -64 -259 259 -258 259 58 61 c75 78 45 96 336 -196z m-3890 -278
l-265 -265 -66 64 -66 64 265 265 265 265 66 -64 66 -64 -265 -265z m-910 318
l53 -55 -259 -259 -259 -258 -61 58 -61 58 255 256 c290 290 262 273 332 200z
m2220 0 l53 -55 -259 -259 -259 -258 -61 58 -61 58 255 256 c290 290 262 273
332 200z m1118 2 l57 -54 -265 -266 -265 -265 -66 64 -66 64 255 255 c283 284
272 277 350 202z m1102 -2 l53 -55 -259 -259 -259 -258 -61 58 -61 58 255 256
c290 290 262 273 332 200z m-3891 -679 l-64 -66 -255 255 c-284 283 -277 272
-202 350 l54 57 266 -265 265 -265 -64 -66z m1110 10 l-65 -64 -260 259 -259
259 64 66 64 66 260 -260 261 -261 -65 -65z m1110 -10 l-64 -66 -265 265 -265
265 64 66 64 66 265 -265 265 -265 -64 -66z m1109 10 l-64 -64 -260 259 -259
259 61 63 61 63 262 -258 263 -258 -64 -64z m1116 -4 l-60 -61 -264 265 -265
264 59 61 58 61 266 -265 266 -265 -60 -60z m-4989 368 l58 -60 -265 -264
-264 -265 -65 65 -64 65 259 260 c296 296 265 278 341 199z m915 -323 c-283
-284 -272 -277 -350 -202 l-57 54 265 266 265 265 66 -64 66 -64 -255 -255z
m1305 323 l58 -60 -265 -264 -264 -265 -65 65 -64 65 259 260 c296 296 265
278 341 199z m905 -333 l-265 -265 -66 64 -66 64 265 265 265 265 66 -64 66
-64 -265 -265z m1315 333 l58 -60 -265 -264 -264 -265 -65 65 -64 65 259 260
c296 296 265 278 341 199z m-4081 -359 l259 -260 -64 -65 -65 -65 -264 265
-265 264 58 60 c76 79 45 97 341 -199z m1100 0 l259 -260 -64 -65 -65 -65
-264 265 -265 264 58 60 c76 79 45 97 341 -199z m1120 0 l259 -260 -64 -65
-65 -65 -264 265 -265 264 58 60 c76 79 45 97 341 -199z m1295 -325 l-65 -64
-260 259 -259 259 64 66 64 66 260 -260 261 -261 -65 -65z m925 325 l259 -260
-64 -65 -65 -65 -264 265 -265 264 58 60 c76 79 45 97 341 -199z m-4800 39
l58 -60 -264 -264 -265 -263 -64 64 -64 64 259 260 c296 296 265 278 340 199z
m1100 1 l58 -61 -258 -259 -259 -259 -66 64 -66 64 255 255 c291 292 261 274
336 196z m1120 0 l57 -59 -267 -262 -266 -262 -62 62 -61 61 259 260 c295 296
265 278 340 200z m900 -320 l-259 -260 -60 60 -60 60 259 260 259 260 60 -60
60 -60 -259 -260z m1317 323 l55 -57 -265 -263 -266 -264 -60 61 -60 60 259
260 c295 295 266 278 337 203z m548 -678 l-64 -66 -255 255 c-284 283 -277
272 -202 350 l54 57 266 -265 265 -265 -64 -66z m-4629 319 l255 -255 -66 -64
-66 -64 -259 259 -258 259 58 61 c75 78 45 96 336 -196z m1104 -4 l258 -259
-58 -61 -58 -61 -266 265 -265 265 53 55 c70 74 42 91 336 -204z m1114 6 l255
-255 -62 -64 -63 -65 -261 259 -261 259 58 60 c75 78 43 96 334 -194z m1106
-6 l258 -259 -58 -61 -58 -61 -266 265 -265 265 53 55 c70 74 42 91 336 -204z"/>
<path d="M5921 71 c-45 -47 -58 -71 -38 -71 38 0 124 90 114 119 -4 13 -38 -9
-76 -48z"/>
</g>
</svg>
